{"title":"Children.Of.Men.2006.SWE.DVDRip.XviD.AC3.(5.1)-Zen_Bud","uid":5747066,"size":1470744344,"categoryP":"video","categoryS":"movies","magnet":"?xt=urn:btih:04ea00328980a4fcad6244c52eb3542ecf1c50ed&amp;dn=Children.Of.Men.2006.SWE.DVDRip.XviD.AC3.%285.1%29-Zen_Bud&amp;tr=udp%3A%2F%2Ftracker.openbittorrent.com%3A80&amp;tr=udp%3A%2F%2Fopen.demonii.com%3A1337&amp;tr=udp%3A%2F%2Ftracker.coppersurfer.tk%3A6969&amp;tr=udp%3A%2F%2Fexodus.desync.com%3A6969","seeders":0,"leechers":1,"uploader":"Zen_Bud","files":-1,"time":1281257027,"description":"General\nComplete name                    : Children.Of.Men.2006.avi\nFormat                           : AVI\nFile size                        : 1.37 GiB\nDuration                         : 1h 44mn\nOverall bit rate                 : 1 874 Kbps\n\nVideo\n\nFormat                           : MPEG-4 Visual\nCodec ID/Hint                    : XviD\nDuration                         : 1h 44mn\nBit rate                         : 1 479 Kbps\nWidth                            : 720 pixels\nHeight                           : 554 pixels\nDisplay aspect ratio             : 16:9\nStream size                      : 1.08 GiB (79%)\nWriting library                  : XviD 1.1.2 (UTC 2006-11-01)\n\nAudio\n\nFormat                           : AC-3\nDuration                         : 1h 44mn\nBit rate                         : 384 Kbps\nChannel(s)                       : 6 channels\nChannel positions                : Front: L C R, Side: L R, LFE\nSampling rate                    : 48.0 KHz\nStream size                      : 287 MiB (20%)\n\n\n","torrent":{"xt":"urn:btih:04ea00328980a4fcad6244c52eb3542ecf1c50ed","amp;dn":"Children.Of.Men.2006.SWE.DVDRip.XviD.AC3.%285.1%29-Zen_Bud","amp;tr":["udp%3A%2F%2Ftracker.openbittorrent.com%3A80","udp%3A%2F%2Fopen.demonii.com%3A1337","udp%3A%2F%2Ftracker.coppersurfer.tk%3A6969","udp%3A%2F%2Fexodus.desync.com%3A6969"],"infoHash":"04ea00328980a4fcad6244c52eb3542ecf1c50ed","infoHashBuffer":{"type":"Buffer","data":[4,234,0,50,137,128,164,252,173,98,68,197,46,179,84,46,207,28,80,237]},"announce":[],"urlList":[]}}